<svg id="undraw_indoor_bike_pwa4" xmlns="http://www.w3.org/2000/svg" width="47%" height="20%"
    viewBox="0 0 621.896 525.457">
    <path id="Path_36" data-name="Path 36"
        d="M918.616,676.022s-90.669-41.74-58.817-70.685S918.616,676.022,918.616,676.022Z"
        transform="translate(-337.798 -216.182)" fill="#0cb800" />
    <path id="Path_37" data-name="Path 37"
        d="M929.017,675.044S887.342,538.114,948.71,544.663,929.017,675.044,929.017,675.044Z"
        transform="translate(-349.777 -205.465)" fill="#0cb800" />
    <path id="Path_38" data-name="Path 38"
        d="M894.679,691.17l1.749,22.906.028.4a105.238,105.238,0,0,0,.541,10.71c2.374,23.364,12.577,34.011,24.5,34.011s21.684-10.648,24.058-34.011a105.258,105.258,0,0,0,.541-10.71l.014-.319.007-.076,1.756-22.906Z"
        transform="translate(-345.825 -233.735)" fill="#881f1f" />
    <path id="Path_39" data-name="Path 39"
        d="M946.537,719.542l-.007.076-.014.319a105.277,105.277,0,0,1-.541,10.71h-48.56a105.275,105.275,0,0,1-.541-10.71l-.028-.4Z"
        transform="translate(-346.243 -239.201)" fill="#ebb48c" />
    <path id="Path_40" data-name="Path 40"
        d="M293.838,712.1s-33.715-15.521-21.871-26.283S293.838,712.1,293.838,712.1Z"
        transform="translate(-225.368 -232.326)" fill="#0cb800" />
    <path id="Path_41" data-name="Path 41"
        d="M272,716.8l1.217,15.937.019.275a73.223,73.223,0,0,0,.377,7.452c1.652,16.256,8.751,23.664,17.048,23.664s15.087-7.408,16.739-23.664a73.242,73.242,0,0,0,.377-7.452l.01-.222,0-.053,1.222-15.937Z"
        transform="translate(-225.861 -238.673)" fill="#881f1f" />
    <path id="Path_42" data-name="Path 42"
        d="M730.754,425.98h0a8.225,8.225,0,0,0-2.176-14.6l-18.876-6.02-10.372,8.988,22.9,12.136a8.225,8.225,0,0,0,8.527-.5Z"
        transform="translate(-308.189 -178.67)" fill="#ffb9b9" />
    <path id="Path_43" data-name="Path 43"
        d="M678.8,394.22l12.444-14.43-46.337-50.714-21.335-49.464a15.193,15.193,0,0,0-17.327-8.8h0a15.193,15.193,0,0,0-10.108,21.813l27.846,53.636Z"
        transform="translate(-287.979 -152.676)" fill="#e6e6e6" />
    <path id="Path_44" data-name="Path 44" d="M519.289,534.666l-2.385-3.7h-4.4V529.35h5.284l2.863,4.441Z"
        transform="translate(-98.738 -101.984)" fill="#3f3d56" />
    <path id="Path_45" data-name="Path 45"
        d="M694.8,653.961h-9.282v-1.615H694.8Zm-12.377,0h-9.282v-1.615h9.282Zm-12.376,0h-9.282v-1.615h9.282Zm-12.377,0H648.39v-1.615h9.282Zm-12.376,0h-9.282v-1.615H645.3Zm-12.377,0-8.6-.007-.782-.1.213-1.6.729.1h8.439Zm-12.448-.519-9.2-1.222.213-1.6,9.2,1.222Zm-12.269-1.63-9.2-1.223.213-1.6,9.2,1.223Zm-12.268-1.63-9.2-1.222.213-1.6,9.2,1.222Zm-12.269-1.63-9.2-1.223.213-1.6,9.2,1.223Z"
        transform="translate(-284.133 -224.98)" fill="#3f3d56" />
    <path id="Path_46" data-name="Path 46"
        d="M350.443,525.5l-1.614-.045.164-5.739,5.69.757-.213,1.6-3.914-.519Z"
        transform="translate(-67.205 -100.128)" fill="#3f3d56" />
    <path id="Path_47" data-name="Path 47"
        d="M563.763,695.526l-1.614-.046.309-10.807,1.614.046Zm.412-14.409-1.614-.046.309-10.807,1.614.046Zm.412-14.409-1.614-.046.309-10.807,1.614.046Z"
        transform="translate(-281.76 -226.931)" fill="#3f3d56" />
    <path id="Path_48" data-name="Path 48"
        d="M346.969,590.563l.164-5.739,1.614.045-.113,3.945,3.934-.306.126,1.61Z"
        transform="translate(-66.847 -112.672)" fill="#3f3d56" />
    <path id="Path_49" data-name="Path 49"
        d="M572.706,712.583l-.125-1.61,9.27-.721.125,1.61Zm12.36-.96-.125-1.61,9.27-.721.125,1.61Zm12.36-.96-.125-1.61,9.27-.721.125,1.61Zm12.359-.96-.125-1.61,9.269-.721.125,1.61Zm12.359-.96-.125-1.61,9.27-.721.125,1.61Zm12.36-.96-.125-1.61,9.269-.721.125,1.61Zm12.359-.96-.125-1.61,9.27-.721.125,1.61Zm12.36-.96-.125-1.61,9.269-.721.125,1.61Zm12.359-.96-.125-1.61,9.27-.721.125,1.61Zm12.36-.96-.125-1.61,9.269-.721.125,1.61Zm12.359-.96-.125-1.61,9.27-.721.125,1.61Zm12.36-.96-.125-1.61,9.269-.721.125,1.61Z"
        transform="translate(-283.77 -235.376)" fill="#3f3d56" />
    <path id="Path_50" data-name="Path 50"
        d="M541.565,575.454l-.125-1.61,3.481-.271-1.892-2.934,1.358-.875,3.356,5.209Z"
        transform="translate(-104.314 -109.771)" fill="#3f3d56" />
    <path id="Path_51" data-name="Path 51"
        d="M752.386,686.1l-6.055-9.4,1.358-.875,6.055,9.4Zm-8.073-12.527-6.055-9.4,1.358-.875,6.055,9.4Z"
        transform="translate(-315.689 -228.367)" fill="#3f3d56" />
    <circle id="Ellipse_2" data-name="Ellipse 2" cx="54.899" cy="54.899" r="54.899"
        transform="translate(352 390.632)" fill="#ff9700" />
    <path id="Path_52" data-name="Path 52" d="M536.592,596.846l-80.33-142.5L438.5,472.112l79.119,124.33Z"
        transform="translate(-84.481 -87.535)" fill="#3f3d56" />
    <path id="Path_53" data-name="Path 53" d="M258.5,582.713,438.941,399.85l14.936,29.468L282.72,590.786Z"
        transform="translate(-49.803 -77.035)" fill="#3f3d56" />
    <circle id="Ellipse_3" data-name="Ellipse 3" cx="36.33" cy="36.33" r="36.33"
        transform="translate(245.835 413.641)" fill="#3f3d56" />
    <path id="Path_54" data-name="Path 54"
        d="M504.156,694.925a.808.808,0,0,0-.807.807v6.459a.808.808,0,0,0,.807.807H524.34a.808.808,0,0,0,.807-.807v-6.459a.808.808,0,0,0-.807-.807Z"
        transform="translate(-270.432 -234.458)" fill="#ff9700" />
    <path id="Path_55" data-name="Path 55"
        d="M561.656,583.425a.808.808,0,0,0-.807.807v6.459a.808.808,0,0,0,.807.807H581.84a.808.808,0,0,0,.807-.807v-6.459a.808.808,0,0,0-.807-.807Z"
        transform="translate(-281.509 -212.977)" fill="#ff9700" />
    <path id="Path_56" data-name="Path 56" d="M463.491,437.726H442.5V421.579l8.073-3.229,12.917,9.688Z"
        transform="translate(-85.252 -80.599)" fill="#3f3d56" />
    <rect id="Rectangle_17" data-name="Rectangle 17" width="2.422" height="9.688"
        transform="matrix(0.904, -0.428, 0.428, 0.904, 357.713, 334.695)" fill="#3f3d56" />
    <path id="Path_57" data-name="Path 57"
        d="M659.919,524.881a.8.8,0,0,0-.434.128l-14.26,9.171a.808.808,0,0,0-.242,1.116l3.493,5.432a.808.808,0,0,0,1.116.242l14.26-9.171h0a.809.809,0,0,0,.242-1.116l-3.493-5.432a.813.813,0,0,0-.681-.371Z"
        transform="translate(-297.694 -201.698)" fill="#ff9700" />
    <path id="Path_58" data-name="Path 58"
        d="M699.4,544.985h0l-16.551-80.33,19.376-3.229,13.211,64.713A15.294,15.294,0,0,1,699.4,544.985Z"
        transform="translate(-305.014 -189.472)" fill="#3f3d56" />
    <path id="Path_59" data-name="Path 59"
        d="M773.949,428.23l-19.167-1.369a1.615,1.615,0,0,1-1.372-2.24l27.842-65.739a1.615,1.615,0,0,1,1.2-.96l18.906-3.376a1.615,1.615,0,0,1,1.787,2.178l-27.58,70.484A1.615,1.615,0,0,1,773.949,428.23Z"
        transform="translate(-318.584 -168.876)" fill="#3f3d56" />
    <path id="Path_60" data-name="Path 60" d="M543.5,298.708l15.339,1.615,25.028-62.973-16.147,2.422Z"
        transform="translate(-104.711 -45.728)" fill="#ff9700" />
    <path id="Path_61" data-name="Path 61" d="M324.748,501.919,304.564,522.1,275.5,395.35l16.147,2.422Z"
        transform="translate(-53.078 -76.168)" fill="#3f3d56" />
    <path id="Path_62" data-name="Path 62"
        d="M514.757,520.421l-3.486-1.046a48.773,48.773,0,0,1-21.782,4.1,6.243,6.243,0,0,1-5.983-6.272h0a6.277,6.277,0,0,1,6.277-6.277h30.451a3.108,3.108,0,0,1,3.108,3.108h0a6.669,6.669,0,0,1-8.585,6.388Z"
        transform="translate(-266.609 -199.009)" fill="#3f3d56" />
    <path id="Path_63" data-name="Path 63"
        d="M746.039,424.5a3.547,3.547,0,0,0-2.158.728l-24.786,18.954L691.349,447.8c-4.777.623-8.085,5.82-8.5,10.544l32.659-4.535a21.928,21.928,0,0,0,12.267-5.265l20.589-17.806a3.55,3.55,0,0,0-2.326-6.238Z"
        transform="translate(-305.014 -182.359)" fill="#3f3d56" />
    <path id="Path_64" data-name="Path 64"
        d="M731.039,409.5a3.547,3.547,0,0,0-2.158.728l-24.786,18.954L676.349,432.8c-4.777.623-8.085,5.82-8.5,10.544l32.659-4.535a21.928,21.928,0,0,0,12.267-5.265l20.589-17.806a3.55,3.55,0,0,0-2.326-6.238Z"
        transform="translate(-302.124 -179.469)" fill="#3f3d56" />
    <path id="Path_65" data-name="Path 65"
        d="M757.777,455.357a36.892,36.892,0,0,1-29.64-15.03l3.255-2.387a32.7,32.7,0,1,0,50.9-40.955l3.026-2.673a36.735,36.735,0,0,1-27.539,61.046Z"
        transform="translate(-313.739 -176.542)" fill="#3f3d56" />
    <rect id="Rectangle_18" data-name="Rectangle 18" width="285.798" height="20.184"
        transform="translate(186.496 505.274)" fill="#3f3d56" />
    <path id="Path_66" data-name="Path 66"
        d="M706.4,450.711h0a8.225,8.225,0,0,0,1.124-14.721l-17.067-10.065-12.11,6.459,19.628,16.92A8.225,8.225,0,0,0,706.4,450.711Z"
        transform="translate(-304.147 -182.633)" fill="#ffb9b9" />
    <path id="Path_67" data-name="Path 67"
        d="M546.867,517.278l11.3,6.459,69.792-51.372a22.485,22.485,0,0,0,9.556-15.269h0a22.559,22.559,0,0,0-8.139-20.81c-15.413-12.519-34.462-23.874-54.66-34.86l-29.872,14.532c12.311,25.242,25.976,46.055,46.018,46.018Z"
        transform="translate(-278.427 -177.913)" fill="#ff9700" />
    <path id="Path_68" data-name="Path 68"
        d="M540.55,559.807c9.378,9.5,21.727,16.3,35.52,21.782a5.407,5.407,0,0,0,6.068-1.474h0a5.4,5.4,0,0,0-.2-7.324L573,563.612l-5.4-19.24c-11.6,5.734-19.206,4.45-20.706-7.562l-7.311,9.971A10.065,10.065,0,0,0,540.55,559.807Z"
        transform="translate(-277.037 -203.996)" fill="#2f2e41" />
    <path id="Path_69" data-name="Path 69"
        d="M499.25,618.425l16.954.807L554.956,419.82l-66.606-21.395c-6.65,24.862,3.224,65.558,20.587,113.431Z"
        transform="translate(-267.14 -177.335)" fill="#ff9700" />
    <circle id="Ellipse_4" data-name="Ellipse 4" cx="26.642" cy="26.642" r="26.642"
        transform="translate(335.854 58.815)" fill="#ffb9b9" />
    <path id="Path_70" data-name="Path 70" d="M388.5,139.222l16.954,12.11L431.289,125.5,418.372,109.35Z"
        transform="translate(-74.848 -21.067)" fill="#ffb9b9" />
    <path id="Path_71" data-name="Path 71"
        d="M485.349,371.352c20.909,17.039,43.741,28.238,71.853,23.413,8.495-13.581,14.767-42.191,25.431-54.5,23.288-26.871,34.838-50.822,27.45-72.661-7.182-4.7-6.866-4.688-12.11-20.184C556.9,255.025,517.133,301.392,485.349,371.352Z"
        transform="translate(-266.964 -148.243)" fill="#e6e6e6" />
    <path id="Path_72" data-name="Path 72"
        d="M500.633,685.831c12.068,5.707,26,7.856,40.836,8.275a5.408,5.408,0,0,0,5.194-3.466h0a5.4,5.4,0,0,0-2.7-6.811l-11.547-5.554L520.74,662.056c-8.929,9.366-16.514,10.769-22.044,0l-3.447,11.875a10.065,10.065,0,0,0,5.384,11.9Z"
        transform="translate(-268.795 -228.126)" fill="#2f2e41" />
    <path id="Path_73" data-name="Path 73"
        d="M662.387,408.366l15.339-11.3L643.818,337.32l-9.809-52.968a15.193,15.193,0,0,0-14.938-12.426h0a15.193,15.193,0,0,0-14.7,19.021L619.6,349.43Z"
        transform="translate(-289.799 -152.963)" fill="#e6e6e6" />
    <rect id="Rectangle_19" data-name="Rectangle 19" width="8.881" height="48.44"
        transform="translate(286.606 377.714)" fill="#3f3d56" />
    <path id="Path_74" data-name="Path 74"
        d="M677.756,213.962a9.811,9.811,0,0,0,8.661,3.461,7.424,7.424,0,0,0,6.267-6.475c.177-2.8-1.467-5.363-3.192-7.572a61.382,61.382,0,0,0-13.41-12.659c-2.423-1.678-5.1-3.222-8.039-3.4-1.456-.09-2.914.161-4.371.1-2.679-.115-5.19-1.274-7.8-1.875a19.2,19.2,0,0,0-15.589,3.3,23.132,23.132,0,0,0-3.971,3.87,29.819,29.819,0,0,0-6.27,13.634c-1.4,7.934.349,16.635-3.464,23.733,4.473-.418,8.06-3.829,12.31-5.287a14.718,14.718,0,0,1,9.71.087,4.678,4.678,0,0,0,2.62.49,4.031,4.031,0,0,0,1.874-1.37l8.126-8.842c1.654-1.8,3.532-3.717,5.964-3.966a9.415,9.415,0,0,1,4.218.837,63.62,63.62,0,0,1,9.423,4.478"
        transform="translate(-294.172 -136.232)" fill="#2f2e41" />
    <path id="Path_75" data-name="Path 75"
        d="M455.422,323.887,453,325.5l16.147,16.147,9.688-8.881L462.688,319.85Z"
        transform="translate(-87.275 -61.622)" fill="#3f3d56" />
    <rect id="Rectangle_20" data-name="Rectangle 20" width="199.946" height="206.881" fill="#a77c3b" />
    <rect id="Rectangle_21" data-name="Rectangle 21" width="178.6" height="184.792"
        transform="translate(10.673 11.044)" fill="#fff" />
    <path id="Path_76" data-name="Path 76"
        d="M56.26,206.165h6.361l-.04-2.561-.109-5.68-1.008-58.409-.014-.273L60.932,109.4,59.665,36.85H59.38L58.03,109.93,57.5,139.256l-.014.273Z"
        transform="translate(-10.839 -7.1)" fill="#a77c3b" />
    <path id="Path_77" data-name="Path 77" d="M0,0H5.079V19.186H0Z"
        transform="translate(64.878 183.852) rotate(62.234)" fill="#a77c3b" />
    <rect id="Rectangle_23" data-name="Rectangle 23" width="8.073" height="195.376"
        transform="translate(96.073 5.53)" fill="#a77c3b" />
    <rect id="Rectangle_24" data-name="Rectangle 24" width="199.946" height="8.073"
        transform="translate(0 99.182)" fill="#a77c3b" />
</svg>