                                <svg xmlns="http://www.w3.org/2000/svg" xmlns:xlink="http://www.w3.org/1999/xlink"
                                    width="264" height="180" viewBox="0 0 264 253">
                                    <defs>
                                        <clipPath id="clip-path">
                                            <rect id="Rectangle_28" data-name="Rectangle 28" width="264" height="253"
                                                transform="translate(875.314 1503.006)" fill="#fff" stroke="#707070"
                                                stroke-width="1" />
                                        </clipPath>
                                    </defs>
                                    <g id="Mask_Group_1" data-name="Mask Group 1"
                                        transform="translate(-875.314 -1503.006)" clip-path="url(#clip-path)">
                                        <g id="undraw_bike_ride_7xit" transform="translate(875 1514.641)">
                                            <path id="Path_78" data-name="Path 78"
                                                d="M235.172,85.955c-.142.208-.287.413-.433.618l-.334-.671-.053-.109-.33-.661-8.409-16.948,0,0L211.354,39.465v0l-.327-.657v0l-7.055-14.213-.334-.674q.376.01.753.03l.337.677,7.035,14.18,0,0,.327.657v0l13.892,27.986v0l.327.657v0l8.409,16.934.112.228Z"
                                                transform="translate(18.171 -23.898)" fill="#3f3d56" />
                                            <path id="Path_79" data-name="Path 79"
                                                d="M243.509,35.11H180.574c.169-.221.34-.443.519-.661h61.9C243.168,34.667,243.34,34.889,243.509,35.11Z"
                                                transform="translate(8.635 -19.543)" fill="#3f3d56" />
                                            <path id="Path_80" data-name="Path 80"
                                                d="M235.478,54.719c-.02.221-.043.443-.073.661H219.283v-.661Z"
                                                transform="translate(24.64 -11.163)" fill="#3f3d56" />
                                            <path id="Path_81" data-name="Path 81"
                                                d="M182.461,32.909V86.721c-.228-.241-.446-.486-.661-.73V33.639C182.015,33.395,182.233,33.151,182.461,32.909Z"
                                                transform="translate(9.143 -20.18)" fill="#3f3d56" />
                                            <rect id="Rectangle_29" data-name="Rectangle 29" width="61.456"
                                                height="0.661" transform="translate(191.274 61.233)" fill="#3f3d56" />
                                            <path id="Path_82" data-name="Path 82"
                                                d="M216.6,49.37c0,5.63-8.28,21.507-11.39,27.271a1.319,1.319,0,0,1-2.323,0c-3.11-5.764-11.39-21.641-11.39-27.271a12.551,12.551,0,1,1,25.1,0Z"
                                                transform="translate(13.151 -18.563)" fill="#ffd9b8" />
                                            <circle id="Ellipse_5" data-name="Ellipse 5" cx="5.615" cy="5.615" r="5.615"
                                                transform="translate(211.582 25.192)" fill="#fff" />
                                            <circle id="Ellipse_6" data-name="Ellipse 6" cx="2.312" cy="2.312" r="2.312"
                                                transform="translate(214.885 59.543)" fill="#ffd9b8" />
                                            <path id="Path_83" data-name="Path 83"
                                                d="M119.813,222.347c.1.046.2.092.3.132l-.274-.089q-1.962-.649-3.894-1.377-3.106-1.164-6.13-2.527-2.16-.971-4.281-2.038A107.775,107.775,0,0,1,72.9,191.187q-1.249-1.427-2.448-2.9-1.02-1.253-2-2.543a105.212,105.212,0,0,1-9.843-15.633,107.554,107.554,0,0,1-11.891-50.5c.092-5.945.717-12.013,3.214-17.407A20.814,20.814,0,0,1,59.95,91.827c.37-.165.746-.317,1.13-.449a14.416,14.416,0,0,1,1.8-.519c6.335-1.394,13.024,1.457,17.744,5.906s7.818,10.318,10.669,16.148a409.434,409.434,0,0,1,23.154,57.6c.069.225.139.446.208.667a29.922,29.922,0,0,0-6.161,5.98l-3.232,5.235a29.487,29.487,0,0,0-1.656,4.22q-.283.912-.5,1.85a29.734,29.734,0,0,0,16.706,33.879Z"
                                                transform="translate(-46.71 3.632)" fill="#f2f2f2" />
                                            <path id="Path_84" data-name="Path 84"
                                                d="M103.1,185.188l-.023.116-.007.026c0-.01,0-.017,0-.026-.007-.043-.01-.086-.016-.129C103.068,185.178,103.085,185.185,103.1,185.188Z"
                                                transform="translate(-23.416 42.773)" fill="#f2f2f2" />
                                            <path id="Path_85" data-name="Path 85"
                                                d="M99.314,185.6c.139.287.277.575.419.859q-.283.912-.5,1.85c-.149-.307-.3-.618-.449-.925q-3.627-7.437-7.055-14.962c-3.937-8.6-7.739-17.255-11.547-25.905L68.157,119.189q-6.01-13.664-12.023-27.322a.782.782,0,0,1-.056-.2c-.07-.634.829-1.093,1.13-.449a.071.071,0,0,1,.01.017q.753,1.7,1.5,3.4,6.01,13.659,12.023,27.322,5.99,13.61,11.983,27.223c3.8,8.621,7.6,17.238,11.557,25.783Q96.752,180.3,99.314,185.6Z"
                                                transform="translate(-42.838 3.797)" fill="#fff" />
                                            <path id="Path_86" data-name="Path 86"
                                                d="M101.463,186.474c-.221-.347-.443-.69-.661-1.037-.188-.294-.373-.588-.558-.882-.046-.073-.092-.142-.132-.215q.912.282,1.83.542c.049.083.1.168.159.251.149.235.3.472.449.707.023.04.043.076.06.112C102.87,186.59,101.876,187.115,101.463,186.474Z"
                                                transform="translate(-24.631 42.428)" fill="#fff" />
                                            <path id="Path_87" data-name="Path 87"
                                                d="M119.969,200.1c.271.38.538.76.8,1.143-.459.1-.915.2-1.377.3-.367.073-.733.145-1.1.211a62.33,62.33,0,0,1-67.136-33.377,25.066,25.066,0,0,1-3.029-9.906,12.193,12.193,0,0,1,2.4-8.092c.145-.185.3-.363.462-.538a9.041,9.041,0,0,1,.8-.753,10.381,10.381,0,0,1,6.239-2.263,14.392,14.392,0,0,1,4.568.538c3.653,1.037,6.844,3.247,9.9,5.506a237.469,237.469,0,0,1,29.235,25.347c.3.307.6.621.892.931a29.919,29.919,0,0,0,16.611,19.917.164.164,0,0,1,.03.043C119.5,199.44,119.737,199.77,119.969,200.1Z"
                                                transform="translate(-46.129 26.913)" fill="#f2f2f2" />
                                            <path id="Path_88" data-name="Path 88"
                                                d="M99.568,185.4c-.016-.023-.033-.05-.05-.073l.026-.007Z"
                                                transform="translate(-24.876 42.833)" fill="#f2f2f2" />
                                            <path id="Path_89" data-name="Path 89"
                                                d="M49.925,149.608l13.619,10.939,13.619,10.939c4.313,3.464,8.624,6.933,12.988,10.333,4.326,3.37,8.705,6.674,13.188,9.834s9.056,6.167,13.774,8.95q.881.52,1.769,1.029c.41.235.805-.386.393-.623-4.751-2.726-9.364-5.688-13.866-8.807s-8.907-6.4-13.246-9.749C87.8,179.082,83.5,175.636,79.2,172.185l-13.57-10.9L52.012,150.347l-1.695-1.361c-.369-.3-.759.329-.393.623Z"
                                                transform="translate(-45.441 27.779)" fill="#fff" />
                                            <path id="Path_90" data-name="Path 90"
                                                d="M182.079,222.347c-.1.046-.2.092-.3.132l.274-.089q1.962-.649,3.894-1.377,3.106-1.164,6.13-2.527,2.16-.971,4.281-2.038a107.776,107.776,0,0,0,32.64-25.261q1.249-1.427,2.448-2.9,1.02-1.253,2-2.543a105.211,105.211,0,0,0,9.843-15.633,107.554,107.554,0,0,0,11.891-50.5c-.092-5.945-.717-12.013-3.214-17.407a20.814,20.814,0,0,0-10.018-10.371c-.37-.165-.746-.317-1.13-.449a14.416,14.416,0,0,0-1.8-.519c-6.335-1.394-13.024,1.457-17.744,5.906s-7.818,10.318-10.669,16.148a409.439,409.439,0,0,0-23.154,57.6c-.069.225-.139.446-.208.667a29.922,29.922,0,0,1,6.161,5.98l3.232,5.235a29.492,29.492,0,0,1,1.656,4.22q.283.912.5,1.85a29.734,29.734,0,0,1-16.706,33.879Z"
                                                transform="translate(9.132 3.632)" fill="#f2f2f2" />
                                            <path id="Path_91" data-name="Path 91"
                                                d="M177.333,185.188l.023.116.007.026c0-.01,0-.017,0-.026.007-.043.01-.086.016-.129C177.366,185.178,177.349,185.185,177.333,185.188Z"
                                                transform="translate(7.295 42.773)" fill="#f2f2f2" />
                                            <path id="Path_92" data-name="Path 92"
                                                d="M193.876,185.6c-.139.287-.277.575-.419.859q.283.912.5,1.85c.149-.307.3-.618.449-.925q3.627-7.437,7.055-14.962c3.937-8.6,7.739-17.255,11.547-25.905l12.026-27.322q6.01-13.664,12.023-27.322a.781.781,0,0,0,.056-.2c.069-.634-.829-1.093-1.13-.449a.072.072,0,0,0-.01.017q-.753,1.7-1.5,3.4-6.01,13.659-12.023,27.322-5.99,13.61-11.983,27.223c-3.8,8.621-7.6,17.238-11.557,25.783Q196.438,180.3,193.876,185.6Z"
                                                transform="translate(13.962 3.797)" fill="#fff" />
                                            <path id="Path_93" data-name="Path 93"
                                                d="M179.7,186.474c.221-.347.443-.69.661-1.037.188-.294.373-.588.558-.882.046-.073.092-.142.132-.215q-.912.282-1.83.542c-.05.083-.1.168-.159.251-.149.235-.3.472-.449.707-.023.04-.043.076-.059.112C178.292,186.59,179.287,187.115,179.7,186.474Z"
                                                transform="translate(7.782 42.428)" fill="#fff" />
                                            <path id="Path_94" data-name="Path 94"
                                                d="M181.7,200.1c-.271.38-.538.76-.8,1.143.459.1.915.2,1.377.3.367.073.733.145,1.1.211a62.33,62.33,0,0,0,67.136-33.377,25.067,25.067,0,0,0,3.029-9.906,12.193,12.193,0,0,0-2.4-8.092c-.145-.185-.3-.363-.462-.538a9.04,9.04,0,0,0-.8-.753,10.381,10.381,0,0,0-6.239-2.263,14.391,14.391,0,0,0-4.568.538c-3.653,1.037-6.844,3.247-9.9,5.506a237.469,237.469,0,0,0-29.235,25.347c-.3.307-.6.621-.892.931a29.919,29.919,0,0,1-16.611,19.917.163.163,0,0,0-.03.043C182.169,199.44,181.935,199.77,181.7,200.1Z"
                                                transform="translate(8.771 26.913)" fill="#f2f2f2" />
                                            <path id="Path_95" data-name="Path 95"
                                                d="M180.866,185.4c.016-.023.033-.05.049-.073l-.026-.007Z"
                                                transform="translate(8.756 42.833)" fill="#f2f2f2" />
                                            <path id="Path_96" data-name="Path 96"
                                                d="M250.874,149.608l-13.619,10.939-13.619,10.939c-4.313,3.464-8.624,6.933-12.988,10.333-4.326,3.37-8.705,6.674-13.188,9.834s-9.056,6.167-13.774,8.95q-.881.52-1.769,1.029c-.41.235-.805-.386-.393-.623,4.751-2.726,9.364-5.688,13.866-8.807s8.907-6.4,13.246-9.749c4.362-3.369,8.664-6.816,12.961-10.267l13.57-10.9,13.619-10.939,1.695-1.361c.369-.3.759.329.393.623Z"
                                                transform="translate(8.956 27.779)" fill="#fff" />
                                            <path id="Path_97" data-name="Path 97"
                                                d="M133.99,107.475a2.131,2.131,0,0,0-1.234,1.087l-1.7,3.45-.454.922a2.15,2.15,0,0,0,.976,2.875l13.147,6.468,23.314,11.465a2.151,2.151,0,0,0,2.8-.84c.027-.046.05-.09.075-.137l1.3-2.64.853-1.736a2.137,2.137,0,0,0,.16-.435,2.159,2.159,0,0,0-.053-1.2,2.131,2.131,0,0,0-1.087-1.234l-2.779-1.368-20.56-10.112-13.119-6.456A2.146,2.146,0,0,0,133.99,107.475Z"
                                                transform="translate(-12.115 10.602)" fill="#ffd9b8" />
                                            <path id="Path_98" data-name="Path 98"
                                                d="M130.391,109.094a5.972,5.972,0,0,0-.622,1.09,6.118,6.118,0,0,0,3.122,8.058l10.274,4.535a2.156,2.156,0,0,0,2.032-.161,2.116,2.116,0,0,0,.613-.6,2.056,2.056,0,0,0,.187-.333l3.2-7.252a.3.3,0,0,0,.02-.053A2.146,2.146,0,0,0,148.1,111.6l-10.274-4.535a6.12,6.12,0,0,0-7.436,2.032Z"
                                                transform="translate(-12.584 10.264)" fill="#2f2e41" />
                                            <path id="Path_99" data-name="Path 99"
                                                d="M152.036,131.687h-4.875a2.149,2.149,0,0,0-2.147,2.147v30.391a2.149,2.149,0,0,0,2.147,2.147h4.875a2.147,2.147,0,0,0,2.147-2.147V133.834a2.147,2.147,0,0,0-2.147-2.147Z"
                                                transform="translate(-6.067 20.659)" fill="#ffd9b8" />
                                            <path id="Path_100" data-name="Path 100"
                                                d="M156.641,146.066a2.845,2.845,0,0,1-1.039-.2l-27.157-10.624a2.947,2.947,0,0,1-1.628-3.831l2.324-5.94a2.987,2.987,0,0,1,1.559-1.647,2.86,2.86,0,0,1,2.236-.062l27.157,10.625a2.863,2.863,0,0,1,1.6,1.563,2.986,2.986,0,0,1,.027,2.267l-2.324,5.94A2.978,2.978,0,0,1,156.641,146.066Z"
                                                transform="translate(-13.678 17.303)" fill="#ccc" />
                                            <path id="Path_101" data-name="Path 101"
                                                d="M152.161,158.633h-5.285a1.817,1.817,0,0,1,0-3.633h5.285a1.817,1.817,0,0,1,0,3.633Z"
                                                transform="translate(-6.048 30.298)" fill="#2f2e41" />
                                            <path id="Path_102" data-name="Path 102"
                                                d="M122.482,136.349a8.806,8.806,0,0,1-1.975-.209c-2.932-.677-4.015-1.964-4.192-2.617a.581.581,0,0,1,.107-.6.506.506,0,0,1,.541-.075c.911.3,13.822-2.249,18.407-3.307,1.907-.44,3.245-.367,3.978.215a1.283,1.283,0,0,1,.518.936v.115l-9.017,3.34A21.876,21.876,0,0,1,122.482,136.349Z"
                                                transform="translate(-17.949 19.655)" fill="#2f2e41" />
                                            <path id="Path_103" data-name="Path 103"
                                                d="M196.538,174.176a.33.33,0,0,1-.3-.2l-17.013-38.7a.986.986,0,0,0-.927-.592l-46.549.95a.986.986,0,0,0-.825.474l-22.34,36.532a.33.33,0,1,1-.563-.344l22.34-36.532a1.644,1.644,0,0,1,1.375-.79l46.549-.95a1.653,1.653,0,0,1,1.546.987l17.013,38.7a.331.331,0,0,1-.3.463Z"
                                                transform="translate(-21.383 21.628)" fill="#2f2e41" />
                                            <path id="Path_104" data-name="Path 104"
                                                d="M135.745,174.563a.331.331,0,0,1-.317-.239l-10.768-37.463a.33.33,0,0,1,.635-.183l10.768,37.463a.33.33,0,0,1-.226.409.326.326,0,0,1-.091.013Z"
                                                transform="translate(-14.487 22.624)" fill="#2f2e41" />
                                            <path id="Path_105" data-name="Path 105"
                                                d="M139.4,137.513H128.83a7.44,7.44,0,0,1-7.432-7.432V128.43A7.44,7.44,0,0,1,128.83,121H139.4a7.44,7.44,0,0,1,7.432,7.432v1.651a7.44,7.44,0,0,1-7.432,7.432Z"
                                                transform="translate(-15.83 16.24)" fill="#ccc" />
                                            <circle id="Ellipse_7" data-name="Ellipse 7" cx="1.982" cy="1.982" r="1.982"
                                                transform="translate(175.839 196.922)" fill="#2f2e41" />
                                            <circle id="Ellipse_8" data-name="Ellipse 8" cx="1.982" cy="1.982" r="1.982"
                                                transform="translate(82.695 196.922)" fill="#2f2e41" />
                                            <path id="Path_106" data-name="Path 106"
                                                d="M156.946,125.867a1.156,1.156,0,0,1-.386-2.246l9.965-3.523a1.156,1.156,0,1,1,.771,2.18L157.33,125.8A1.149,1.149,0,0,1,156.946,125.867Z"
                                                transform="translate(-1.612 15.84)" fill="#2f2e41" />
                                            <path id="Path_107" data-name="Path 107"
                                                d="M138.239,172.47a.33.33,0,0,1-.238-.56l29.86-30.949a.33.33,0,0,1,.475.459l-29.86,30.949a.329.329,0,0,1-.238.1Z"
                                                transform="translate(-9.004 24.452)" fill="#2f2e41" />
                                            <path id="Path_108" data-name="Path 108"
                                                d="M110.506,166.256a.33.33,0,0,1,0-.661l27.588-.08h0a.33.33,0,1,1,0,.661l-27.588.08Z"
                                                transform="translate(-20.47 34.645)" fill="#2f2e41" />
                                            <path id="Path_109" data-name="Path 109"
                                                d="M158.563,135.946a.33.33,0,0,1-.323-.261L156.7,128.47a.33.33,0,0,1,.323-.4h5.241v-3.542a.33.33,0,1,1,.661,0V128.4a.33.33,0,0,1-.33.33h-5.162l1.459,6.816a.33.33,0,0,1-.323.4Z"
                                                transform="translate(-1.24 17.563)" fill="#2f2e41" />
                                            <path id="Path_110" data-name="Path 110"
                                                d="M136.066,175.923a6.606,6.606,0,1,1,6.606-6.606A6.606,6.606,0,0,1,136.066,175.923Zm0-12.551a5.945,5.945,0,1,0,5.945,5.945,5.945,5.945,0,0,0-5.945-5.945Z"
                                                transform="translate(-12.497 33.486)" fill="#2f2e41" />
                                            <path id="Path_111" data-name="Path 111"
                                                d="M140.71,169.616h-5.285a1.817,1.817,0,1,1,0-3.633h5.285a1.817,1.817,0,0,1,0,3.633Z"
                                                transform="translate(-10.782 34.838)" fill="#2f2e41" />
                                            <path id="Path_112" data-name="Path 112"
                                                d="M299.35,186.541H55.493a.393.393,0,0,1,0-.787H299.35a.393.393,0,1,1,0,.787Z"
                                                transform="translate(-43.241 43.013)" fill="#3f3d56" />
                                            <path id="Path_113" data-name="Path 113"
                                                d="M137.695,101.1a2.131,2.131,0,0,0-1.449.778l-2.437,2.974-.652.795a2.15,2.15,0,0,0,.3,3.022l11.33,9.289,20.093,16.469a2.151,2.151,0,0,0,2.918-.18c.037-.038.07-.076.1-.116l1.866-2.275,1.225-1.5a2.134,2.134,0,0,0,.254-.387,2.158,2.158,0,0,0,.222-1.185,2.13,2.13,0,0,0-.778-1.449l-2.4-1.964-17.72-14.525-11.306-9.272A2.146,2.146,0,0,0,137.695,101.1Z"
                                                transform="translate(-11.17 8.009)" fill="#ffd9b8" />
                                            <circle id="Ellipse_9" data-name="Ellipse 9" cx="17.677" cy="17.677"
                                                r="17.677" transform="translate(101.619 61.564)" fill="#ffd9b8" />
                                            <path id="Path_114" data-name="Path 114"
                                                d="M141.678,88.783l-.018-.661a5.463,5.463,0,0,0,3.127-.706,2.031,2.031,0,0,0,.787-1.5,1.161,1.161,0,0,0-.381-.956,2,2,0,0,0-2.044-.018l-.547.251,1.048-7.66.654.09-.892,6.516a2.332,2.332,0,0,1,2.206.317,1.807,1.807,0,0,1,.614,1.484,2.686,2.686,0,0,1-1.057,2.006A6.078,6.078,0,0,1,141.678,88.783Z"
                                                transform="translate(-7.454 -1.728)" fill="#2f2e41" />
                                            <rect id="Rectangle_30" data-name="Rectangle 30" width="3.558"
                                                height="0.661" transform="translate(128.857 76.461)" fill="#2f2e41" />
                                            <path id="Path_115" data-name="Path 115"
                                                d="M150.251,109.977l-7.881-8a6.111,6.111,0,1,0-8.707,8.576l7.881,8a2.146,2.146,0,0,0,2.7.293,1.78,1.78,0,0,0,.338-.269l5.647-5.563a2.123,2.123,0,0,0,.469-.684A2.158,2.158,0,0,0,150.251,109.977Z"
                                                transform="translate(-11.486 7.623)" fill="#2f2e41" />
                                            <path id="Path_116" data-name="Path 116"
                                                d="M140.586,141.969h-4.875a2.149,2.149,0,0,0-2.147,2.147v30.391a2.149,2.149,0,0,0,2.147,2.147h4.875a2.147,2.147,0,0,0,2.147-2.147V144.116a2.147,2.147,0,0,0-2.147-2.147Z"
                                                transform="translate(-10.801 24.91)" fill="#ffd9b8" />
                                            <path id="Path_117" data-name="Path 117"
                                                d="M135.709,159.843a3.057,3.057,0,0,1-3.146-2.357l-4.943-28.739a2.715,2.715,0,0,1,.628-2.206,3.609,3.609,0,0,1,2.184-1.232l7.137-1.228a3.16,3.16,0,0,1,3.8,2.3l4.943,28.739a2.715,2.715,0,0,1-.626,2.205,3.609,3.609,0,0,1-2.186,1.233l-7.137,1.227A3.844,3.844,0,0,1,135.709,159.843Z"
                                                transform="translate(-13.272 17.491)" fill="#ccc" />
                                            <path id="Path_118" data-name="Path 118"
                                                d="M145.473,99.947a12.791,12.791,0,0,0-2.9-2.449,14.812,14.812,0,0,0-15.484.067,12.914,12.914,0,0,0-2.52,2.081,10.979,10.979,0,0,0-3.072,7.53v31.8a1.387,1.387,0,0,0,.026.289,2.237,2.237,0,0,0,2.286,1.754h22.153a2.195,2.195,0,0,0,2.312-2.043v-31.8A10.908,10.908,0,0,0,145.473,99.947Z"
                                                transform="translate(-15.79 5.635)" fill="#2f2e41" />
                                            <path id="Path_119" data-name="Path 119"
                                                d="M140.33,88.561a3.891,3.891,0,0,1-5.124-3.342,3.953,3.953,0,0,1,1.23-3.16,5.32,5.32,0,0,1,2.776-1.23c2.225-.386,4.513-.073,6.748-.406a6.576,6.576,0,0,0,5.23-3.618,8.147,8.147,0,0,0,.057-6.629,11.628,11.628,0,0,0-5.254-5.334A20.57,20.57,0,0,0,131.906,63.1,21.884,21.884,0,0,0,119.8,70.31q-.562.677-1.065,1.4a.5.5,0,0,0,.428.746l2.9-.349-.428-.746-3.15,5.663c-.194.348.135.888.56.728l4.619-1.741-.482-.828-4.584,5.582c-.4.489.3,1.194.7.7l4.584-5.582c.279-.339.03-1.021-.482-.828L118.776,76.8l.56.728,3.15-5.663c.164-.3-.036-.793-.428-.745l-2.9.349.428.746a20.584,20.584,0,0,1,11.393-7.862,19.9,19.9,0,0,1,13.9,1.032,11.2,11.2,0,0,1,5.418,5.082,7.034,7.034,0,0,1-.234,6.363c-2.486,4.244-8.282,2.063-12.16,3.3a5.07,5.07,0,0,0-3.69,5.035,4.852,4.852,0,0,0,4.655,4.594,4.71,4.71,0,0,0,1.727-.237c.6-.2.344-1.157-.263-.955Z"
                                                transform="translate(-17.061 -7.912)" fill="#2f2e41" />
                                            <path id="Path_120" data-name="Path 120"
                                                d="M246.407,85.8h.076v-.109a1.081,1.081,0,0,1-.076.109ZM245.9,39.47c-.169-.221-.34-.443-.519-.661a39.564,39.564,0,0,0-29.063-14.86q-.376-.02-.753-.03c-.377-.01-.753-.017-1.133-.017a39.516,39.516,0,0,0-29.073,12.73c-.228.241-.446.486-.661.73q-.629.708-1.216,1.447c-.178.218-.35.439-.519.661A39.547,39.547,0,0,0,184.7,89.715c.215.244.433.489.661.73a39.583,39.583,0,0,0,61.306-3.868c.145-.2.291-.41.433-.618a39.319,39.319,0,0,0,6.7-17.839c.03-.218.053-.439.073-.661q.193-1.932.195-3.921A39.411,39.411,0,0,0,245.9,39.47Zm7.237,28.65a38.628,38.628,0,0,1-6.375,17.162q-.134.2-.277.406a1.086,1.086,0,0,1-.076.109c-.023.036-.049.073-.076.109a38.93,38.93,0,0,1-60.973,3.561c-.228-.251-.449-.5-.661-.76a38.9,38.9,0,0,1-.9-49.237c.175-.221.35-.443.532-.661.119-.149.241-.294.37-.439.211-.258.433-.509.661-.76a38.864,38.864,0,0,1,29.073-13.047q.738,0,1.466.03c.254.007.505.02.756.033a38.925,38.925,0,0,1,27.88,14.183c.182.218.357.439.532.661a38.982,38.982,0,0,1,8.145,27.989c-.023.221-.046.443-.076.661ZM246.407,85.8h.076v-.109A1.079,1.079,0,0,1,246.407,85.8Z"
                                                transform="translate(6.246 -23.903)" fill="#ccc" />
                                            <path id="Path_121" data-name="Path 121"
                                                d="M115.819,203.362A30.057,30.057,0,1,1,145.876,173.3a30.057,30.057,0,0,1-30.057,30.057Zm0-59.454a29.4,29.4,0,1,0,29.4,29.4,29.4,29.4,0,0,0-29.4-29.4Z"
                                                transform="translate(-30.564 25.439)" fill="#2f2e41" />
                                            <path id="Path_122" data-name="Path 122"
                                                d="M181.717,203.362A30.057,30.057,0,1,1,211.774,173.3a30.057,30.057,0,0,1-30.057,30.057Zm0-59.454a29.4,29.4,0,1,0,29.4,29.4A29.4,29.4,0,0,0,181.717,143.908Z"
                                                transform="translate(-3.319 25.439)" fill="#2f2e41" />
                                        </g>
                                    </g>
                                </svg>