<?xml version="1.0" encoding="utf-8"?>
<!-- Generator: Adobe Illustrator 27.2.0, SVG Export Plug-In . SVG Version: 6.00 Build 0)  -->
<svg class="mySVG4" version="1.1" id="Capa_1" xmlns="http://www.w3.org/2000/svg" xmlns:xlink="http://www.w3.org/1999/xlink" x="0px" y="0px"
	 viewBox="0 0 12.7 13.6" style="enable-background:new 0 0 12.7 13.6;" xml:space="preserve">
<style type="text/css">
	.st0{fill:#FFFFFF;}
</style>
<path class="st0" d="M10,8.4c-0.7,0-1.4,0.4-2,1L5,7.7c0.1-0.3,0.1-0.6,0.1-0.9s0-0.6-0.1-0.9l3-1.7c0.4,0.6,1.1,0.9,2,0.9
	c1.4,0,2.6-1.1,2.6-2.6S11.3,0.1,10,0.1S7.4,1.2,7.4,2.7c0,0.3,0,0.6,0.1,0.9L4.4,5.1C4,4.5,3.3,4.2,2.6,4.2C1.1,4.2,0,5.4,0,6.7
	s1.1,2.6,2.6,2.6c0.7,0,1.4-0.4,2-1l3,1.7c-0.1,0.4-0.1,0.6-0.1,1c0,1.4,1.1,2.6,2.6,2.6s2.6-1.1,2.6-2.6S11.4,8.4,10,8.4z M10,1
	c0.9,0,1.6,0.7,1.6,1.6S10.9,4.2,10,4.2S8.3,3.5,8.3,2.5C8.3,1.7,9,1,10,1z M2.6,8.4c-1,0-1.7-0.7-1.7-1.6s0.7-1.6,1.6-1.6
	S4,6,4,6.8S3.4,8.4,2.6,8.4z M10,12.7c-1,0-1.7-0.9-1.7-1.7S9,9.4,10,9.4s1.6,0.7,1.6,1.6C11.6,11.8,10.9,12.7,10,12.7z"/>
</svg>
